<mxfile host="app.diagrams.net" modified="2023-12-12T08:23:21.018Z" agent="Mozilla/5.0 (Macintosh; Intel Mac OS X 10_15_7) AppleWebKit/605.1.15 (KHTML, like Gecko) Version/17.1 Safari/605.1.15" version="22.1.7" etag="ukIKVEMr37yJ7xUX2Rkt" type="github">
  <diagram name="第 1 页" id="z-ZRG0HKTPIA29lXoGy4">
    <mxGraphModel>
      <root>
        <mxCell id="0" />
        <mxCell id="1" parent="0" />
      </root>
    </mxGraphModel>
  </diagram>
</mxfile>
